<svg id="Warstwa_1" data-name="Warstwa 1" xmlns="http://www.w3.org/2000/svg" viewBox="0 0 130 110"><defs><style>.cls-1{fill:#00214c;}.cls-2{fill:#1bd2ff;}</style></defs><title>Obszar roboczy 19_1</title><path class="cls-1" d="M11.54,66.81v.36h-1.2v-6.7h1.2v2.21A2.44,2.44,0,0,1,13,62.23a2.53,2.53,0,0,1,0,5.05,2.08,2.08,0,0,1-1.39-.47m2.55-2.06a1.28,1.28,0,0,0-1.39-1.43,1.64,1.64,0,0,0-1.18.46v2a1.64,1.64,0,0,0,1.21.45,1.31,1.31,0,0,0,1.36-1.45"/><rect class="cls-1" x="16.23" y="62.35" width="1.23" height="4.82"/><path class="cls-1" d="M19.81,66.81v.36h-1.2v-6.7h1.2v2.21a2.44,2.44,0,0,1,1.42-.45,2.53,2.53,0,0,1,0,5.05,2.08,2.08,0,0,1-1.4-.47m2.56-2.06A1.29,1.29,0,0,0,21,63.32a1.65,1.65,0,0,0-1.18.46v2A1.65,1.65,0,0,0,21,66.2a1.31,1.31,0,0,0,1.37-1.45"/><rect class="cls-1" x="24.5" y="60.47" width="1.23" height="6.69"/><rect class="cls-1" x="26.89" y="62.35" width="1.23" height="4.82"/><path class="cls-1" d="M29,64.75a2.42,2.42,0,0,1,2.65-2.51,2.52,2.52,0,1,1,0,5A2.42,2.42,0,0,1,29,64.75m4.07,0a1.42,1.42,0,1,0-1.42,1.43,1.34,1.34,0,0,0,1.42-1.43"/><path class="cls-1" d="M35.12,65.68V60.47h1.2v1.88H37.7v1H36.32v2.12c0,.54.13.77.63.77a3,3,0,0,0,.74-.1v1a3.2,3.2,0,0,1-1.11.16c-1,0-1.46-.5-1.46-1.6"/><path class="cls-1" d="M43,65.13H39.22a1.3,1.3,0,0,0,1.42,1.12A1.73,1.73,0,0,0,42,65.63l.77.65a2.58,2.58,0,0,1-2.24,1,2.52,2.52,0,1,1-.06-5A2.3,2.3,0,0,1,43,64.77c0,.12,0,.36,0,.36m-3.72-.88h2.54a1.16,1.16,0,0,0-1.28-1,1.21,1.21,0,0,0-1.26,1"/><polygon class="cls-1" points="46.91 64.25 48.67 67.16 47.3 67.16 46.02 65.1 45.07 66.02 45.07 67.17 43.85 67.17 43.85 60.47 45.07 60.47 45.07 64.55 47.21 62.35 48.71 62.35 46.91 64.25"/><path class="cls-1" d="M49,64.75a2.27,2.27,0,0,1,2.36-2.5,2.31,2.31,0,0,1,1.42.43v-.33H54v4.82H52.78v-.36a2,2,0,0,1-1.39.46A2.28,2.28,0,0,1,49,64.75m3.81,1v-2a1.66,1.66,0,0,0-1.19-.46,1.44,1.44,0,0,0,0,2.87,1.63,1.63,0,0,0,1.18-.44"/><path class="cls-1" d="M10,51.89c0-3.29,1.94-5.37,5.06-5.37a5,5,0,0,1,3,.92v-.71H20.7V57.07H18.11v-.76a4.55,4.55,0,0,1-3,1c-3.22,0-5.12-2.12-5.12-5.39M18.17,54V49.8a3.54,3.54,0,0,0-2.55-1,2.76,2.76,0,0,0-3,3.06,2.78,2.78,0,0,0,3,3.08A3.52,3.52,0,0,0,18.17,54"/><polygon class="cls-1" points="25.89 54.61 25.89 57.07 23.29 57.07 23.29 42.72 25.89 42.72 25.89 51.45 25.89 54.61"/><path class="cls-1" d="M35.13,52.69v-6h2.6v5.66c0,1.92.71,2.58,2.15,2.58a3.58,3.58,0,0,0,2.4-.83V46.73h2.61V57.07H42.42v-.76a6.32,6.32,0,0,1-3.35,1c-2.8,0-3.94-1.22-3.94-4.63"/><path class="cls-1" d="M46.72,56.38l.83-2a8.11,8.11,0,0,0,3.56.84c1.28,0,1.87-.36,1.87-1.07s-.65-.87-2.38-1.25c-2.36-.52-3.75-1.28-3.75-3.2,0-2.17,1.68-3.22,4.09-3.22a11.47,11.47,0,0,1,4.27.8l-.86,2.08A8.52,8.52,0,0,0,51,48.62c-.89,0-1.54.26-1.54.87s.51.86,2.32,1.28c2.48.59,3.86,1.35,3.86,3.14,0,2.38-1.56,3.41-4.22,3.41a10.09,10.09,0,0,1-4.7-.94"/><path class="cls-1" d="M57.05,53.87V42.72h2.57v4h3v2.15h-3v4.55c0,1.14.29,1.64,1.37,1.64a6.43,6.43,0,0,0,1.58-.21V57a6.59,6.59,0,0,1-2.38.37c-2.26,0-3.14-1.09-3.14-3.45"/><path class="cls-1" d="M74.54,46.73,70.47,57.18c-1.28,3.33-3.14,3.54-4.82,3.54a8,8,0,0,1-2.11-.23l0-2.17a7,7,0,0,0,2,.27,2.58,2.58,0,0,0,2.72-1.94h-.87L63,46.73h2.89l2.91,7.6H69l2.76-7.6Z"/><path class="cls-1" d="M74.94,51.89c0-3.16,2.08-5.37,5.56-5.37A5.36,5.36,0,0,1,85,48.58L83.18,50.2a3.11,3.11,0,0,0-2.58-1.32,3,3,0,1,0,0,6,3.26,3.26,0,0,0,2.7-1.32l1.77,1.6a5.39,5.39,0,0,1-4.55,2.08c-3.52,0-5.56-2.12-5.56-5.39"/><polygon class="cls-1" points="96.11 54.92 96.11 57.07 86.23 57.07 86.23 55.79 92.09 48.88 86.55 48.88 86.55 46.73 96.05 46.73 96.05 47.99 90.08 54.92 96.11 54.92"/><path class="cls-1" d="M97.9,46.73h2.51v.76a7.72,7.72,0,0,1,3.6-1c2.7,0,3.65,1.16,3.65,4.38v6.19h-2.59V51.28c0-1.83-.61-2.44-2-2.44a4.35,4.35,0,0,0-2.55.82v7.41H97.9Z"/><path class="cls-1" d="M109.3,51.89c0-3.29,1.94-5.37,5.07-5.37a5,5,0,0,1,3,.92v-.71H120V57.07h-2.59v-.76a4.55,4.55,0,0,1-3,1c-3.21,0-5.12-2.12-5.12-5.39M117.47,54V49.8a3.54,3.54,0,0,0-2.55-1,2.76,2.76,0,0,0-3,3.06,2.79,2.79,0,0,0,3,3.08,3.51,3.51,0,0,0,2.53-.95"/><polygon class="cls-1" points="27.95 50.9 24.93 50.9 29.55 57.13 32.88 57.13 27.95 50.9"/><polygon class="cls-2" points="31.04 50.9 27.95 50.9 30.48 46.73 33.8 46.73 31.04 50.9"/></svg>