<svg id="Warstwa_1" data-name="Warstwa 1" xmlns="http://www.w3.org/2000/svg" viewBox="0 0 130 110"><defs><style>.cls-1{fill:#00214c;}.cls-2{fill:#1bd2ff;}</style></defs><title>Obszar roboczy 19</title><rect class="cls-1" x="28.9" y="50.01" width="3.99" height="15.72"/><polygon class="cls-1" points="45.42 50.01 37 50.01 37 53.28 37 65.72 40.97 65.72 40.97 58.11 40.97 53.28 45.42 53.28 45.42 50.01"/><path class="cls-1" d="M47.86,60.86v-17h3.91V50h4.51v3.27H51.77V60.2c0,1.73.43,2.49,2.08,2.49a9.69,9.69,0,0,0,2.4-.32v3.18a10.41,10.41,0,0,1-3.62.55c-3.44,0-4.77-1.65-4.77-5.24"/><path class="cls-1" d="M58.86,59.07V50h4V58.6c0,2.93,1.07,3.94,3.27,3.94a5.41,5.41,0,0,0,3.65-1.27V50h4V65.72H69.94V64.57a9.5,9.5,0,0,1-5.09,1.53c-4.26,0-6-1.85-6-7"/><path class="cls-1" d="M76.27,57.85c0-5,3-8.16,7.7-8.16a7.55,7.55,0,0,1,4.63,1.39V50h3.94V65.72H88.6V64.57A6.88,6.88,0,0,1,84.06,66c-4.89,0-7.79-3.21-7.79-8.19m12.42,3.24V54.67a5.42,5.42,0,0,0-3.88-1.48c-2.81,0-4.52,1.71-4.52,4.66s1.65,4.69,4.55,4.69a5.36,5.36,0,0,0,3.85-1.45"/><rect class="cls-1" x="95.93" y="43.9" width="3.99" height="21.83"/><polygon class="cls-1" points="10 50.02 14.44 50.02 21.84 65.91 17.5 65.91 10 50.02"/><path class="cls-1" d="M118.38,63l.28-.36.17-.3c.08-.13.16-.25.23-.38l.15-.34c.06-.13.13-.25.18-.39s.09-.25.13-.37.09-.27.13-.41.06-.26.09-.39a3,3,0,0,0,.1-.43c0-.13,0-.27.06-.41s0-.31.06-.46,0-.29,0-.44,0-.31,0-.47h0v0c0-5-3.36-8.19-8.65-8.19s-8.66,3.21-8.66,8.19v0h0c0,.16,0,.31,0,.47s0,.29,0,.44,0,.31.06.46,0,.28.06.41a3,3,0,0,0,.1.43c0,.13,0,.27.09.39s.09.27.13.41.08.25.13.37.12.26.18.39l.15.34c.07.13.15.25.23.38l.17.3.28.36.19.26.33.35.2.21a4.58,4.58,0,0,0,.42.35c.06,0,.11.11.18.16l.47.32.18.12c.18.11.36.2.55.3l.16.08c.21.11.44.19.66.28l.11,0c.26.09.53.18.8.25h0a11,11,0,0,0,2.76.33h0a11,11,0,0,0,2.76-.33h0c.27-.07.54-.16.8-.25l.11,0c.22-.09.45-.17.66-.28.06,0,.11-.06.16-.08s.38-.19.55-.3l.18-.12.47-.32c.07,0,.12-.11.18-.16a4.58,4.58,0,0,0,.42-.35l.2-.21.33-.35.19-.26m-7-9.8A4.38,4.38,0,0,1,116,57.85s0,.1,0,.15,0,.25,0,.38,0,.07,0,.11,0,.25,0,.38a.36.36,0,0,0,0,.1,3.15,3.15,0,0,1-.09.36l0,.1a3.38,3.38,0,0,1-.11.34l0,.1c0,.11-.09.21-.14.31l-.06.1a2.54,2.54,0,0,1-.16.28l-.07.11-.18.25-.11.12-.18.2-.15.13a1.22,1.22,0,0,1-.17.15l-.18.14-.17.12a1.71,1.71,0,0,1-.23.13l-.15.09-.3.13-.11,0-.39.13h0a5.67,5.67,0,0,1-2.91,0h0l-.39-.13-.11,0L109,62l-.14-.08-.24-.14-.16-.12-.19-.14-.18-.16-.14-.12-.18-.21-.11-.11a2.2,2.2,0,0,1-.17-.25.44.44,0,0,1-.08-.11,2.4,2.4,0,0,1-.16-.27l-.06-.11c0-.1-.09-.2-.14-.31l0-.1a3.38,3.38,0,0,1-.11-.34l0-.1a3.15,3.15,0,0,1-.09-.36.36.36,0,0,0,0-.1c0-.12,0-.25,0-.37s0-.08,0-.12,0-.25,0-.38,0-.1,0-.15a4.38,4.38,0,0,1,4.64-4.63"/><polygon class="cls-2" points="22.55 57.97 26.3 50.02 21.86 50.02 18.14 57.97 22.55 57.97"/></svg>