<?xml version="1.0" encoding="utf-8"?>
<!-- Generator: Adobe Illustrator 16.0.3, SVG Export Plug-In . SVG Version: 6.00 Build 0)  -->
<!DOCTYPE svg PUBLIC "-//W3C//DTD SVG 1.1//EN" "http://www.w3.org/Graphics/SVG/1.1/DTD/svg11.dtd">
<svg version="1.1" xmlns="http://www.w3.org/2000/svg" xmlns:xlink="http://www.w3.org/1999/xlink" x="0px" y="0px" width="210px"
	 height="85px" viewBox="0 0 210 85" enable-background="new 0 0 210 85" xml:space="preserve">
<g id="Warstwa_1">
	<rect fill="#FFFFFF" width="210" height="85"/>
</g>
<g id="foto" display="none">
	<path display="inline" fill="#222221" d="M36.559,40.506v1.837H25.863c0.087,0.767,0.257,1.395,0.509,1.887
		c0.251,0.491,0.552,0.88,0.902,1.165c0.35,0.284,0.727,0.48,1.132,0.59c0.405,0.11,0.804,0.164,1.197,0.164
		c0.984,0,1.717-0.18,2.198-0.541c0.481-0.36,0.842-0.825,1.083-1.395l3.543,1.443c-0.503,1.313-1.34,2.318-2.51,3.019
		s-2.663,1.051-4.479,1.051c-2.537,0-4.511-0.767-5.921-2.298c-1.411-1.53-2.116-3.652-2.116-6.365c0-1.181,0.168-2.274,0.508-3.281
		c0.339-1.005,0.841-1.875,1.509-2.608c0.667-0.732,1.494-1.313,2.478-1.739c0.984-0.426,2.121-0.64,3.412-0.64
		c1.137,0,2.153,0.197,3.051,0.591c0.896,0.394,1.657,0.935,2.28,1.624c0.624,0.689,1.099,1.504,1.427,2.444
		S36.559,39.413,36.559,40.506z M25.929,39.456h6.66c-0.044-0.918-0.35-1.678-0.918-2.28s-1.312-0.902-2.231-0.902
		c-1.006,0-1.799,0.285-2.378,0.853C26.481,37.696,26.104,38.472,25.929,39.456z M53.325,49.463h-4.463v-9.974
		c0-1.028-0.191-1.793-0.574-2.296c-0.382-0.503-0.989-0.754-1.821-0.754c-0.635,0-1.187,0.104-1.657,0.311
		c-0.47,0.208-0.924,0.498-1.361,0.87v11.843H39.02V33.059h4.266v1.214c1.443-0.983,2.887-1.477,4.331-1.477
		c0.722,0,1.438,0.154,2.149,0.459c0.711,0.307,1.318,0.854,1.821,1.641c0.634-0.634,1.394-1.142,2.28-1.525
		c0.886-0.383,1.919-0.575,3.101-0.575c0.722,0,1.449,0.094,2.182,0.279c0.732,0.187,1.394,0.521,1.985,1.001
		c0.59,0.48,1.077,1.143,1.46,1.984c0.383,0.842,0.574,1.92,0.574,3.232v10.17h-4.43v-9.974c0-1.006-0.18-1.761-0.541-2.264
		s-0.957-0.755-1.788-0.755c-0.963,0-1.717,0.295-2.264,0.886s-0.82,1.335-0.82,2.231V49.463z M65.956,33.059h4.167v1.181
		c0.656-0.481,1.312-0.825,1.969-1.033c0.656-0.208,1.443-0.312,2.362-0.312c1.99,0,3.592,0.706,4.807,2.116
		c1.214,1.411,1.821,3.396,1.821,5.955c0,1.204-0.181,2.325-0.541,3.363c-0.361,1.039-0.886,1.941-1.575,2.707
		c-0.689,0.766-1.548,1.367-2.575,1.804c-1.028,0.438-2.198,0.657-3.511,0.657c-0.416,0-0.832-0.012-1.248-0.033
		c-0.415-0.021-0.831-0.055-1.247-0.098v5.184h-4.429V33.059z M73.272,36.569c-1.16,0-2.122,0.307-2.888,0.918v8.431
		c0.394,0.045,0.782,0.066,1.165,0.066c0.383,0,0.826,0,1.329,0c1.247,0,2.182-0.459,2.805-1.378
		c0.624-0.919,0.935-2.198,0.935-3.838C76.618,37.969,75.503,36.569,73.272,36.569L73.272,36.569z M84.394,36.667h-2.297v-3.609
		h6.759v16.404h-4.462V36.667z M88.626,25.546v-2.822h-5.315v5.315h2.658c-0.109,0.438-0.301,0.891-0.574,1.362
		c-0.274,0.47-0.662,0.967-1.165,1.492l1.509,1.51c0.569-0.591,1.034-1.132,1.395-1.624c0.361-0.493,0.656-1,0.885-1.526
		c0.23-0.525,0.389-1.083,0.476-1.673C88.583,26.989,88.626,26.312,88.626,25.546z M92.268,25.84h4.463v13.485h1.738l4.167-6.267
		h4.758l-5.152,7.48l5.446,8.924h-4.921l-4.199-6.595H96.73v6.595h-4.463V25.84z"/>
	<path display="inline" fill="#FF5747" d="M117.53,33.041h10.86l-8.786,6.383L117.53,33.041z M129.393,41.736v-7.397l-6.801,4.941
		l6.744,4.9C129.373,43.399,129.393,42.585,129.393,41.736 M121.319,43.953h-8.317v5.477h6.537L121.319,43.953z M123.652,42.077
		l-2.765,8.496c-0.336,0.998-0.806,2.013-1.413,3.044c-0.842,1.43-2.051,2.959-3.627,4.589l4.647,4.688
		c1.684-1.71,3.093-3.326,4.229-4.85c1.135-1.522,2.049-3.091,2.744-4.708c0.694-1.616,1.188-3.353,1.482-5.209
		c0.102-0.64,0.185-1.314,0.251-2.021L123.652,42.077z M118.819,42.314l-3.013-9.274h-2.805v9.274H118.819z"/>
	<g display="inline">
		<path fill="#FF5747" d="M136.905,32.633c0-0.919,0.126-1.805,0.377-2.658c0.253-0.853,0.651-1.608,1.198-2.264
			c0.547-0.656,1.235-1.176,2.066-1.558s1.838-0.574,3.02-0.574c0.414,0,0.819,0.033,1.214,0.099
			c0.394,0.065,0.743,0.153,1.05,0.262l-0.361,2.001c-0.241-0.109-0.525-0.181-0.854-0.213c-0.327-0.033-0.645-0.05-0.951-0.05
			c-1.334,0-2.357,0.405-3.067,1.214c-0.712,0.81-1.066,1.969-1.066,3.478v0.952h4.954v2.198h-4.855v13.943h-2.724V32.633z"/>
		<path fill="#FF5747" d="M160.364,41.393c0,1.203-0.153,2.319-0.459,3.347c-0.308,1.028-0.772,1.909-1.396,2.642
			s-1.399,1.307-2.328,1.722c-0.931,0.416-2.03,0.624-3.298,0.624c-1.269,0-2.375-0.208-3.313-0.624
			c-0.941-0.415-1.718-0.989-2.33-1.722s-1.071-1.613-1.378-2.642c-0.306-1.027-0.46-2.144-0.46-3.347
			c0-1.225,0.154-2.346,0.46-3.363c0.307-1.017,0.771-1.892,1.395-2.625c0.623-0.732,1.399-1.307,2.329-1.722
			c0.929-0.416,2.029-0.624,3.298-0.624c1.268,0,2.367,0.208,3.298,0.624c0.929,0.415,1.705,0.989,2.328,1.722
			c0.623,0.733,1.088,1.608,1.396,2.625C160.211,39.047,160.364,40.168,160.364,41.393z M157.641,41.36
			c0-1.99-0.399-3.499-1.197-4.527c-0.8-1.028-1.985-1.542-3.56-1.542c-1.575,0-2.762,0.515-3.561,1.542
			c-0.798,1.028-1.197,2.537-1.197,4.527c0,1.991,0.399,3.511,1.197,4.56c0.799,1.051,1.985,1.576,3.561,1.576
			c1.574,0,2.76-0.525,3.56-1.576C157.241,44.871,157.641,43.351,157.641,41.36z"/>
		<path fill="#FF5747" d="M167.975,49.727c-1.488,0-2.674-0.438-3.561-1.313c-0.885-0.875-1.327-2.165-1.327-3.872V28.893
			l2.723-0.328v4.758h5.676v2.198h-5.676v8.99c0,1.05,0.257,1.804,0.771,2.264c0.514,0.459,1.153,0.689,1.919,0.689
			c0.481,0,0.908-0.077,1.28-0.23c0.371-0.152,0.743-0.382,1.115-0.688l1.181,1.608c-0.503,0.502-1.077,0.891-1.722,1.164
			C169.708,49.589,168.914,49.727,167.975,49.727z"/>
		<path fill="#FF5747" d="M188.086,41.393c0,1.203-0.154,2.319-0.459,3.347c-0.307,1.028-0.771,1.909-1.395,2.642
			c-0.624,0.732-1.4,1.307-2.329,1.722c-0.931,0.416-2.03,0.624-3.298,0.624c-1.269,0-2.374-0.208-3.314-0.624
			c-0.939-0.415-1.717-0.989-2.329-1.722s-1.071-1.613-1.378-2.642c-0.307-1.027-0.459-2.144-0.459-3.347
			c0-1.225,0.152-2.346,0.459-3.363c0.307-1.017,0.771-1.892,1.395-2.625c0.624-0.732,1.399-1.307,2.329-1.722
			c0.93-0.416,2.029-0.624,3.298-0.624c1.268,0,2.367,0.208,3.298,0.624c0.929,0.415,1.705,0.989,2.329,1.722
			c0.623,0.733,1.088,1.608,1.395,2.625C187.932,39.047,188.086,40.168,188.086,41.393z M185.362,41.36
			c0-1.99-0.399-3.499-1.197-4.527c-0.799-1.028-1.984-1.542-3.56-1.542c-1.574,0-2.762,0.515-3.56,1.542
			c-0.799,1.028-1.198,2.537-1.198,4.527c0,1.991,0.399,3.511,1.198,4.56c0.798,1.051,1.985,1.576,3.56,1.576
			c1.575,0,2.761-0.525,3.56-1.576C184.963,44.871,185.362,43.351,185.362,41.36z"/>
	</g>
</g>
<g id="bilety" display="none">
	<path display="inline" fill="#222221" d="M34.876,39.796v1.608h-9.364c0.076,0.671,0.226,1.221,0.445,1.651
		c0.22,0.432,0.483,0.771,0.79,1.021c0.306,0.248,0.636,0.422,0.991,0.517c0.354,0.096,0.704,0.144,1.049,0.144
		c0.861,0,1.502-0.157,1.924-0.474c0.421-0.315,0.737-0.723,0.948-1.221l3.102,1.263c-0.44,1.15-1.173,2.03-2.197,2.643
		c-1.024,0.613-2.331,0.92-3.92,0.92c-2.221,0-3.949-0.669-5.184-2.01c-1.236-1.341-1.853-3.199-1.853-5.572
		c0-1.034,0.147-1.992,0.445-2.874c0.296-0.88,0.736-1.641,1.321-2.283c0.584-0.641,1.307-1.147,2.168-1.521
		c0.862-0.374,1.857-0.561,2.987-0.561c0.996,0,1.886,0.173,2.671,0.518c0.785,0.345,1.451,0.818,1.996,1.421
		c0.545,0.603,0.962,1.316,1.249,2.139C34.732,37.948,34.876,38.839,34.876,39.796z M25.57,38.877H31.4
		c-0.039-0.804-0.306-1.469-0.804-1.996c-0.499-0.527-1.149-0.791-1.954-0.791c-0.881,0-1.575,0.25-2.083,0.748
		C26.054,37.336,25.723,38.016,25.57,38.877z M49.553,47.637h-3.907v-8.73c0-0.899-0.167-1.57-0.502-2.01
		c-0.335-0.441-0.867-0.661-1.594-0.661c-0.556,0-1.039,0.091-1.45,0.272c-0.412,0.183-0.809,0.436-1.192,0.761v10.368H37.03v-14.36
		h3.734v1.062c1.264-0.861,2.527-1.293,3.792-1.293c0.632,0,1.259,0.135,1.881,0.403c0.622,0.268,1.154,0.747,1.594,1.436
		c0.556-0.555,1.221-1.001,1.997-1.336c0.775-0.335,1.68-0.503,2.713-0.503c0.632,0,1.269,0.082,1.91,0.246
		c0.641,0.163,1.221,0.455,1.738,0.875c0.516,0.422,0.942,1.001,1.278,1.738c0.335,0.737,0.503,1.68,0.503,2.829v8.903h-3.878v-8.73
		c0-0.881-0.158-1.541-0.474-1.982c-0.316-0.44-0.838-0.66-1.565-0.66c-0.843,0-1.504,0.258-1.982,0.775
		c-0.479,0.517-0.718,1.168-0.718,1.953V47.637z M60.611,33.277h3.648v1.034c0.574-0.422,1.148-0.723,1.724-0.906
		c0.574-0.181,1.263-0.272,2.068-0.272c1.742,0,3.144,0.617,4.208,1.853c1.063,1.235,1.594,2.973,1.594,5.213
		c0,1.054-0.158,2.035-0.474,2.944s-0.775,1.7-1.379,2.37c-0.603,0.67-1.354,1.196-2.254,1.579c-0.9,0.384-1.925,0.574-3.073,0.574
		c-0.364,0-0.728-0.01-1.092-0.029c-0.364-0.019-0.728-0.047-1.091-0.086v4.538h-3.877V33.277z M67.016,36.35
		c-1.016,0-1.857,0.269-2.528,0.804v7.382c0.345,0.038,0.685,0.057,1.02,0.057s0.723,0,1.164,0c1.091,0,1.91-0.401,2.455-1.206
		c0.546-0.805,0.819-1.925,0.819-3.361C69.945,37.575,68.969,36.35,67.016,36.35L67.016,36.35z M76.752,36.435h-2.01v-3.158h5.917
		v14.36h-3.906V36.435z M80.458,26.699v-2.469h-4.653v4.652h2.327c-0.096,0.384-0.264,0.781-0.503,1.192
		c-0.24,0.412-0.58,0.847-1.02,1.308l1.321,1.32c0.498-0.516,0.905-0.99,1.221-1.42c0.316-0.431,0.574-0.876,0.776-1.336
		c0.201-0.459,0.34-0.947,0.416-1.465C80.419,27.963,80.458,27.37,80.458,26.699z M83.646,26.958h3.906v11.804h1.522l3.648-5.485
		h4.165l-4.509,6.548l4.768,7.812h-4.309l-3.676-5.772h-1.609v5.772h-3.906V26.958z"/>
	<path display="inline" fill="#9F5AFF" d="M112.918,33.26L112.918,33.26c0,2.289-1.767,4.144-3.945,4.144s-3.946-1.854-3.946-4.144
		l0,0h-3.228v14.347h7.174c-0.296,1.183-0.813,2.407-1.55,3.677c-0.739,1.27-1.787,2.612-3.144,4.029l4.075,4.074
		c1.416-1.475,2.626-2.893,3.631-4.252c1.002-1.357,1.815-2.758,2.435-4.207c0.62-1.444,1.063-2.967,1.328-4.561
		c0.267-1.594,0.399-3.424,0.399-5.491V33.26H112.918z"/>
	<path display="inline" fill="#9F5AFF" d="M134.815,40.314c0,1.282-0.187,2.383-0.56,3.303c-0.374,0.919-0.876,1.675-1.508,2.27
		c-0.633,0.593-1.365,1.033-2.198,1.321c-0.832,0.287-1.718,0.43-2.656,0.43h-5.256V26.958h2.383v7.84
		c0.632-0.497,1.264-0.866,1.896-1.105c0.632-0.239,1.368-0.359,2.212-0.359c1.856,0,3.27,0.632,4.236,1.896
		S134.815,38.188,134.815,40.314z M128.611,35.259c-1.36,0-2.557,0.499-3.591,1.492v8.961h2.873c1.358,0,2.456-0.431,3.288-1.292
		c0.833-0.861,1.25-2.259,1.25-4.193c0-1.569-0.307-2.791-0.92-3.662C130.898,35.694,129.933,35.259,128.611,35.259z
		 M138.779,47.638V35.459h-2.011v-1.953h4.395v14.131H138.779z M137.831,28.279c0-0.479,0.162-0.895,0.488-1.25
		c0.325-0.354,0.747-0.531,1.265-0.531c0.497,0,0.919,0.178,1.264,0.531c0.345,0.354,0.517,0.771,0.517,1.25
		c0,0.517-0.177,0.938-0.531,1.264c-0.354,0.326-0.771,0.489-1.249,0.489c-0.498,0-0.915-0.168-1.25-0.503
		S137.831,28.778,137.831,28.279z M145.5,26.958h2.385v20.679H145.5V26.958z M150.728,40.515c0-1.034,0.139-1.986,0.417-2.857
		c0.276-0.872,0.689-1.632,1.235-2.283c0.545-0.65,1.215-1.159,2.01-1.523c0.794-0.363,1.719-0.545,2.771-0.545
		c0.957,0,1.805,0.167,2.542,0.502s1.354,0.79,1.854,1.364c0.497,0.575,0.875,1.245,1.134,2.011s0.388,1.58,0.388,2.442v1.062
		h-9.995c0.038,1.858,0.478,3.199,1.321,4.021c0.842,0.824,1.848,1.234,3.017,1.234c1.033,0,1.842-0.205,2.426-0.617
		c0.584-0.41,1.011-0.923,1.278-1.536l1.866,0.832c-0.439,1.016-1.129,1.811-2.067,2.385c-0.938,0.574-2.135,0.861-3.59,0.861
		c-1.034,0-1.958-0.177-2.772-0.531c-0.813-0.354-1.508-0.852-2.082-1.493c-0.573-0.641-1.01-1.417-1.307-2.326
		C150.876,42.607,150.728,41.606,150.728,40.515z M157.219,35.172c-1.168,0-2.087,0.364-2.757,1.091
		c-0.671,0.729-1.092,1.666-1.264,2.815h7.783c-0.077-1.187-0.436-2.135-1.077-2.843C159.263,35.527,158.368,35.172,157.219,35.172z
		 M169.77,47.867c-1.301,0-2.34-0.382-3.115-1.148c-0.776-0.767-1.163-1.896-1.163-3.39v-13.7l2.384-0.287v4.165h4.969v1.924h-4.969
		v7.87c0,0.92,0.225,1.58,0.675,1.981c0.45,0.402,1.01,0.604,1.681,0.604c0.421,0,0.795-0.067,1.12-0.202
		c0.325-0.133,0.65-0.335,0.977-0.603l1.033,1.407c-0.44,0.44-0.943,0.78-1.508,1.02S170.594,47.867,169.77,47.867z M178.416,50.625
		c0.784,0,1.44-0.229,1.968-0.689c0.526-0.459,0.923-1.206,1.191-2.24l0.259-0.947h-3.303l-4.826-13.242h2.471l3.964,11.202h2.269
		l2.901-11.202h2.47l-4.106,14.247c-0.46,1.627-1.121,2.829-1.982,3.605c-0.862,0.774-1.915,1.162-3.159,1.162
		c-0.709,0-1.331-0.101-1.868-0.302c-0.535-0.2-0.995-0.474-1.378-0.818l1.149-1.522c0.248,0.249,0.55,0.436,0.904,0.561
		C177.692,50.563,178.052,50.625,178.416,50.625z"/>
</g>
<g id="GO">
	<g>
		<path fill="#222221" d="M46.13,40.11v1.847H35.376c0.087,0.771,0.258,1.402,0.511,1.896c0.252,0.496,0.555,0.887,0.908,1.172
			c0.351,0.285,0.73,0.482,1.138,0.594c0.407,0.109,0.808,0.164,1.204,0.164c0.989,0,1.726-0.182,2.209-0.543
			c0.483-0.363,0.846-0.83,1.088-1.404l3.563,1.453c-0.506,1.318-1.347,2.332-2.523,3.035s-2.678,1.055-4.502,1.055
			c-2.551,0-4.536-0.77-5.954-2.309s-2.127-3.672-2.127-6.399c0-1.188,0.169-2.287,0.511-3.298c0.34-1.011,0.845-1.885,1.517-2.622
			c0.67-0.737,1.501-1.319,2.49-1.748c0.99-0.429,2.133-0.644,3.431-0.644c1.144,0,2.166,0.198,3.068,0.594
			c0.901,0.396,1.666,0.94,2.292,1.632c0.627,0.693,1.105,1.513,1.435,2.458S46.13,39.011,46.13,40.11z M35.442,39.055h6.696
			c-0.044-0.923-0.352-1.687-0.923-2.292c-0.572-0.604-1.319-0.907-2.243-0.907c-1.011,0-1.809,0.286-2.391,0.857
			C35.998,37.285,35.618,38.065,35.442,39.055z M62.985,49.115h-4.486V39.087c0-1.033-0.193-1.802-0.578-2.309
			c-0.384-0.505-0.995-0.759-1.831-0.759c-0.638,0-1.193,0.105-1.666,0.314c-0.473,0.209-0.929,0.5-1.369,0.874v11.908h-4.453
			V32.623h4.288v1.22c1.451-0.99,2.902-1.484,4.354-1.484c0.726,0,1.446,0.154,2.16,0.462c0.715,0.308,1.325,0.857,1.831,1.649
			c0.638-0.638,1.402-1.148,2.293-1.533c0.891-0.385,1.929-0.578,3.117-0.578c0.725,0,1.456,0.094,2.193,0.28
			c0.736,0.187,1.402,0.522,1.996,1.006c0.593,0.483,1.083,1.149,1.468,1.996c0.385,0.847,0.578,1.929,0.578,3.249v10.225h-4.454
			V39.087c0-1.011-0.182-1.77-0.543-2.276c-0.363-0.505-0.962-0.759-1.798-0.759c-0.968,0-1.727,0.297-2.276,0.891
			c-0.55,0.594-0.825,1.342-0.825,2.243V49.115z M75.684,32.623h4.189v1.188c0.659-0.483,1.319-0.831,1.979-1.039
			c0.659-0.209,1.451-0.313,2.375-0.313c2.001,0,3.612,0.709,4.833,2.127c1.221,1.419,1.831,3.414,1.831,5.987
			c0,1.209-0.182,2.337-0.544,3.381c-0.363,1.045-0.891,1.951-1.583,2.721c-0.693,0.771-1.556,1.375-2.589,1.814
			c-1.035,0.439-2.211,0.66-3.529,0.66c-0.418,0-0.837-0.012-1.254-0.033s-0.835-0.055-1.253-0.098v5.211h-4.453V32.623z
			 M83.039,36.152c-1.166,0-2.133,0.308-2.903,0.923v8.477c0.396,0.045,0.786,0.066,1.171,0.066c0.385,0,0.83,0,1.336,0
			c1.253,0,2.193-0.463,2.819-1.385c0.627-0.924,0.94-2.211,0.94-3.86C86.403,37.56,85.282,36.152,83.039,36.152L83.039,36.152z
			 M94.221,36.251h-2.309v-3.628h6.795v16.492h-4.487V36.251z M98.476,25.069v-2.837h-5.344v5.344h2.672
			c-0.11,0.44-0.303,0.896-0.577,1.369c-0.275,0.473-0.666,0.973-1.171,1.501l1.517,1.518c0.572-0.593,1.039-1.138,1.402-1.633
			c0.363-0.495,0.659-1.006,0.89-1.534c0.231-0.527,0.39-1.088,0.479-1.682C98.432,26.521,98.476,25.84,98.476,25.069z
			 M102.137,25.366h4.486v13.557h1.748l4.189-6.3h4.783l-5.18,7.521l5.477,8.972h-4.949l-4.221-6.63h-1.848v6.63h-4.486V25.366z"/>
		<path fill="#00C5CF" d="M122.984,32.637v16.478h8.238c-0.339,1.357-0.933,2.764-1.78,4.221c-0.849,1.459-2.051,3-3.61,4.629
			l4.68,4.678c1.627-1.693,3.017-3.322,4.17-4.883c1.152-1.559,2.085-3.168,2.797-4.83c0.711-1.66,1.221-3.408,1.525-5.238
			c0.306-1.832,0.457-3.932,0.457-6.307v-8.747H122.984z M127.146,46.242V35.284l9.586,5.479L127.146,46.242z"/>
		<g>
			<path fill="#00C5CF" d="M146.158,52.547l1.418-1.748c0.682,0.571,1.38,1,2.095,1.286c0.714,0.285,1.556,0.429,2.523,0.429
				c1.473,0,2.633-0.401,3.479-1.204s1.271-2.018,1.271-3.645v-0.924c-0.704,0.528-1.408,0.907-2.111,1.138
				c-0.704,0.231-1.484,0.347-2.342,0.347c-1.078,0-2.034-0.187-2.87-0.561s-1.539-0.901-2.11-1.583
				c-0.572-0.682-1.012-1.49-1.319-2.425c-0.309-0.934-0.462-1.962-0.462-3.083c0-1.033,0.182-2.012,0.544-2.936
				c0.363-0.924,0.901-1.737,1.616-2.441c0.715-0.704,1.616-1.264,2.705-1.682c1.088-0.417,2.358-0.627,3.81-0.627h6.96V35h-1.683
				v12.666c0,2.309-0.665,4.063-1.995,5.261c-1.331,1.198-3.117,1.798-5.36,1.798c-1.231,0-2.37-0.192-3.414-0.577
				C147.867,53.762,146.949,53.228,146.158,52.547z M148.467,40.606c0,1.847,0.407,3.228,1.221,4.14s1.901,1.368,3.266,1.368
				c1.517,0,2.848-0.505,3.991-1.517V35h-2.54c-2.001,0-3.491,0.522-4.47,1.566C148.956,37.611,148.467,38.958,148.467,40.606z"/>
			<path fill="#00C5CF" d="M177.988,41.002c0,1.209-0.154,2.331-0.462,3.364c-0.309,1.034-0.775,1.919-1.402,2.655
				c-0.626,0.737-1.407,1.314-2.342,1.731c-0.935,0.418-2.04,0.627-3.314,0.627c-1.275,0-2.387-0.209-3.332-0.627
				c-0.945-0.417-1.727-0.994-2.342-1.731c-0.615-0.736-1.077-1.621-1.385-2.655c-0.309-1.033-0.462-2.154-0.462-3.364
				c0-1.231,0.153-2.358,0.462-3.381c0.308-1.022,0.774-1.902,1.401-2.639s1.407-1.314,2.342-1.732
				c0.935-0.417,2.04-0.626,3.315-0.626c1.274,0,2.38,0.209,3.314,0.626c0.935,0.418,1.716,0.995,2.342,1.732
				c0.627,0.737,1.094,1.616,1.402,2.639C177.834,38.644,177.988,39.771,177.988,41.002z M175.25,40.97
				c0-2.001-0.401-3.518-1.204-4.552c-0.803-1.033-1.995-1.55-3.578-1.55c-1.584,0-2.776,0.517-3.579,1.55
				c-0.803,1.034-1.204,2.551-1.204,4.552s0.401,3.528,1.204,4.584s1.995,1.583,3.579,1.583c1.583,0,2.775-0.527,3.578-1.583
				S175.25,42.971,175.25,40.97z"/>
		</g>
	</g>
</g>
</svg>
