<?xml version="1.0" encoding="utf-8"?>
<!-- Generator: Adobe Illustrator 23.0.2, SVG Export Plug-In . SVG Version: 6.00 Build 0)  -->
<svg version="1.1" id="Warstwa_1" xmlns="http://www.w3.org/2000/svg" xmlns:xlink="http://www.w3.org/1999/xlink" x="0px" y="0px"
	 viewBox="0 0 245 48" style="enable-background:new 0 0 245 48;" xml:space="preserve">
<style type="text/css">
	.st0{clip-path:url(#SVGID_4_);fill:#FFEEF0;}
	.st1{clip-path:url(#SVGID_4_);}
	.st2{clip-path:url(#SVGID_4_);fill:#FFA700;}
	.st3{fill:none;}
	.st4{fill:#D0D0D0;}
	.st5{fill:#0080FF;}
	.st6{fill:#FFA700;}
</style>
<g>
	<g>
		<path d="M22.7,29.3h-16c0.1,1.1,0.4,2.1,0.8,2.8c0.4,0.7,0.8,1.3,1.3,1.7c0.5,0.4,1.1,0.7,1.7,0.9c0.6,0.2,1.2,0.2,1.8,0.2
			c1.5,0,2.6-0.3,3.3-0.8c0.7-0.5,1.3-1.2,1.6-2.1l5.3,2.2c-0.8,2-2,3.5-3.8,4.5c-1.7,1-4,1.6-6.7,1.6c-1.9,0-3.6-0.3-5.1-0.9
			c-1.5-0.6-2.7-1.4-3.8-2.6s-1.8-2.5-2.4-4.1C0.3,31.2,0,29.4,0,27.4c0-1.8,0.3-3.4,0.8-4.9C1.3,21,2,19.7,3,18.6
			c1-1.1,2.2-2,3.7-2.6c1.5-0.6,3.2-1,5.1-1c1.7,0,3.2,0.3,4.6,0.9c1.3,0.6,2.5,1.4,3.4,2.4c0.9,1,1.6,2.2,2.1,3.7s0.7,2.9,0.7,4.6
			V29.3z M16.7,25c-0.1-1.4-0.5-2.5-1.4-3.4c-0.9-0.9-2-1.3-3.3-1.3c-1.5,0-2.7,0.4-3.6,1.3c-0.9,0.8-1.4,2-1.7,3.5H16.7z M47.7,40
			H41V25.1c0-1.5-0.3-2.7-0.9-3.4c-0.6-0.8-1.5-1.1-2.7-1.1c-0.9,0-1.8,0.2-2.5,0.5c-0.7,0.3-1.4,0.7-2,1.3V40h-6.6V15.4h6.4v1.8
			c2.2-1.5,4.3-2.2,6.5-2.2c1.1,0,2.1,0.2,3.2,0.7c1.1,0.5,2,1.3,2.7,2.5c0.9-0.9,2.1-1.7,3.4-2.3c1.3-0.6,2.9-0.9,4.6-0.9
			c1.1,0,2.2,0.1,3.3,0.4c1.1,0.3,2.1,0.8,3,1.5c0.9,0.7,1.6,1.7,2.2,3c0.6,1.3,0.9,2.9,0.9,4.8V40h-6.6V25.1c0-1.5-0.3-2.6-0.8-3.4
			c-0.5-0.8-1.4-1.1-2.7-1.1c-1.4,0-2.6,0.4-3.4,1.3c-0.8,0.9-1.2,2-1.2,3.3V40z M66.6,15.4h6.2v1.8c1-0.7,2-1.2,2.9-1.5
			s2.2-0.5,3.5-0.5c1.5,0,2.8,0.3,4,0.8c1.2,0.5,2.3,1.3,3.1,2.4c0.9,1,1.5,2.3,2,3.8c0.5,1.5,0.7,3.2,0.7,5.1c0,1.8-0.3,3.5-0.8,5
			c-0.5,1.6-1.3,2.9-2.4,4c-1,1.1-2.3,2-3.8,2.7c-1.5,0.7-3.3,1-5.2,1c-0.6,0-1.2,0-1.9,0c-0.6,0-1.2-0.1-1.9-0.1v7.7h-6.6V15.4z
			 M73.2,34.7c0.6,0.1,1.2,0.1,1.7,0.1s1.2,0,2,0c1.9,0,3.3-0.7,4.2-2.1s1.4-3.3,1.4-5.7c0-2.2-0.4-3.7-1.2-4.8
			c-0.8-1-2.1-1.5-3.8-1.5c-0.8,0-1.6,0.1-2.3,0.3c-0.7,0.2-1.4,0.6-2,1.1V34.7z M94.1,20.8h-3.4v-5.4h10.1V40h-6.7V20.8z
			 M100.5,4.2c0,1.1-0.1,2.2-0.2,3c-0.1,0.9-0.4,1.7-0.7,2.5c-0.3,0.8-0.8,1.5-1.3,2.3c-0.6,0.7-1.2,1.5-2.1,2.4l-2.3-2.3
			c0.8-0.8,1.3-1.5,1.7-2.2s0.7-1.4,0.9-2h-4V0h7.9V4.2z M105.9,4.7h6.7v20.2h2.6l6.2-9.4h7.1l-7.7,11.2L129,40h-7.4l-6.3-9.9h-2.7
			V40h-6.7V4.7z"/>
	</g>
	<g>
		<path class="st6" d="M141.3,15.8h4v2.1c1-0.8,2.1-1.4,3.1-1.8s2.3-0.6,3.8-0.6c3.1,0,5.6,1,7.4,3c1.8,2,2.7,4.9,2.7,8.7
			c0,2.2-0.3,4-1,5.7s-1.5,3-2.6,4s-2.3,1.9-3.8,2.4s-3,0.8-4.6,0.8c-1.8,0-3.4-0.1-4.8-0.3V48h-4.3V15.8z M151.4,19
			c-1.2,0-2.3,0.2-3.2,0.5c-0.9,0.3-1.8,0.8-2.6,1.6v15.4c0.8,0.1,1.5,0.1,2.3,0.1c0.7,0,1.6,0,2.5,0c2.3,0,4.1-0.8,5.5-2.4
			c1.4-1.6,2.1-4,2.1-7.3c0-2.4-0.5-4.4-1.5-5.8C155.4,19.7,153.7,19,151.4,19z"/>
		<path class="st6" d="M165.8,15.8h4.2V20c1.3-2.2,3.2-3.6,5.6-4.2h3.7V20H175c-1.2,0.4-2.3,0.9-3.1,1.8c-0.8,0.8-1.4,1.8-1.8,3.1
			V40h-4.3V15.8z"/>
		<path class="st6" d="M181.9,21.6c0.5-1.8,1.6-3.2,3.1-4.4c1.6-1.2,3.5-1.7,5.8-1.7c1.5,0,2.8,0.2,3.9,0.6c1.1,0.4,2,1,2.8,1.7
			c0.7,0.7,1.3,1.6,1.7,2.6c0.4,1,0.6,2.1,0.6,3.2V40H196v-2.9c-1,1.2-2.1,2.1-3.4,2.6c-1.3,0.5-2.7,0.7-4.2,0.7
			c-1.1,0-2.2-0.2-3.2-0.5c-1-0.4-1.8-0.9-2.5-1.5s-1.2-1.4-1.6-2.3c-0.4-0.9-0.6-1.8-0.6-2.9c0-1.3,0.3-2.5,0.9-3.6
			c0.6-1.1,1.5-2,2.6-2.6l11.3-1v-2.6c0-1.5-0.4-2.6-1.2-3.4c-0.8-0.8-2-1.2-3.4-1.2c-1.5,0-2.7,0.4-3.5,1.1
			c-0.8,0.7-1.4,1.6-1.7,2.6L181.9,21.6z M189.2,37.3c1.4,0,2.6-0.3,3.6-0.8c1-0.5,1.9-1.4,2.6-2.7V29l-9.2,0.8
			c-1,0.9-1.5,2-1.5,3.3c0,1.1,0.4,2.1,1.2,2.9S187.8,37.3,189.2,37.3z"/>
		<path class="st6" d="M215.2,18.8c-1.5,0-2.7,0.2-3.7,0.7c-1,0.4-1.8,1.1-2.4,1.9s-1.1,1.8-1.3,2.9c-0.3,1.1-0.4,2.3-0.4,3.7
			c0,1.5,0.2,2.9,0.6,4c0.4,1.1,0.9,2.1,1.5,2.8s1.4,1.3,2.2,1.7c0.8,0.4,1.7,0.6,2.7,0.6c1.4,0,2.6-0.3,3.7-0.9
			c1.1-0.6,1.9-1.5,2.5-2.8l3.3,1.4c-0.3,0.8-0.7,1.5-1.3,2.2c-0.6,0.7-1.3,1.3-2.1,1.8c-0.8,0.5-1.8,0.9-2.8,1.2s-2.2,0.5-3.6,0.5
			c-1.6,0-3.1-0.3-4.4-0.9c-1.3-0.6-2.5-1.4-3.5-2.5s-1.7-2.4-2.3-3.9c-0.5-1.5-0.8-3.3-0.8-5.2c0-1.7,0.2-3.4,0.7-4.9
			c0.4-1.5,1.2-2.8,2.1-3.9c1-1.1,2.2-2,3.8-2.7c1.5-0.7,3.4-1,5.6-1c1.3,0,2.6,0.1,4,0.4c1.4,0.3,2.6,0.6,3.6,1.1v6.4h-3.8v-4
			c-0.6-0.2-1.2-0.3-1.8-0.4C216.6,18.9,215.9,18.8,215.2,18.8z"/>
		<path class="st6" d="M227.2,21.6c0.5-1.8,1.6-3.2,3.1-4.4c1.6-1.2,3.5-1.7,5.8-1.7c1.5,0,2.8,0.2,3.9,0.6c1.1,0.4,2,1,2.8,1.7
			c0.7,0.7,1.3,1.6,1.7,2.6c0.4,1,0.6,2.1,0.6,3.2V40h-3.7v-2.9c-1,1.2-2.1,2.1-3.4,2.6c-1.3,0.5-2.7,0.7-4.2,0.7
			c-1.1,0-2.2-0.2-3.2-0.5c-1-0.4-1.8-0.9-2.5-1.5s-1.2-1.4-1.6-2.3c-0.4-0.9-0.6-1.8-0.6-2.9c0-1.3,0.3-2.5,0.9-3.6
			c0.6-1.1,1.5-2,2.6-2.6l11.3-1v-2.6c0-1.5-0.4-2.6-1.2-3.4c-0.8-0.8-2-1.2-3.4-1.2c-1.5,0-2.7,0.4-3.5,1.1
			c-0.8,0.7-1.4,1.6-1.7,2.6L227.2,21.6z M234.5,37.3c1.4,0,2.6-0.3,3.6-0.8c1-0.5,1.9-1.4,2.6-2.7V29l-9.2,0.8
			c-1,0.9-1.5,2-1.5,3.3c0,1.1,0.4,2.1,1.2,2.9S233.1,37.3,234.5,37.3z"/>
	</g>
</g>
</svg>
