<svg id="Warstwa_1" data-name="Warstwa 1" xmlns="http://www.w3.org/2000/svg" viewBox="0 0 90 40"><title>Obszar roboczy 14</title><g id="Warstwa_2" data-name="Warstwa 2"><g id="Warstwa_1-2" data-name="Warstwa 1-2"><path d="M25.54,22.58H18.11a4,4,0,0,0,.35,1.31,2.52,2.52,0,0,0,.6.81,2.13,2.13,0,0,0,.79.41,3.4,3.4,0,0,0,.84.11,2.56,2.56,0,0,0,1.53-.37,2.38,2.38,0,0,0,.75-1l2.47,1A4.1,4.1,0,0,1,23.69,27a5.93,5.93,0,0,1-3.1.73,6.4,6.4,0,0,1-2.37-.41,4.7,4.7,0,0,1-1.75-1.19,5.41,5.41,0,0,1-1.1-1.9A8,8,0,0,1,15,21.69a7,7,0,0,1,.35-2.28,5.19,5.19,0,0,1,1-1.82,4.86,4.86,0,0,1,1.73-1.2,5.8,5.8,0,0,1,2.36-.45,5.18,5.18,0,0,1,2.13.4,4.67,4.67,0,0,1,1.59,1.13,4.84,4.84,0,0,1,1,1.7,6.36,6.36,0,0,1,.34,2.12Zm-2.76-2A2.38,2.38,0,0,0,22.14,19a2,2,0,0,0-1.55-.63,2.23,2.23,0,0,0-1.65.59,2.92,2.92,0,0,0-.79,1.62Zm14.42,7H34.09V20.6a2.62,2.62,0,0,0-.4-1.6,1.46,1.46,0,0,0-1.25-.53,2.81,2.81,0,0,0-1.15.22,4,4,0,0,0-1,.6v8.24H27.25V16.12h3V17a5.25,5.25,0,0,1,3-1,3.71,3.71,0,0,1,1.5.32A2.89,2.89,0,0,1,36,17.4a5.1,5.1,0,0,1,1.58-1.06,5.51,5.51,0,0,1,2.15-.4,6.39,6.39,0,0,1,1.52.19,3.63,3.63,0,0,1,1.39.69,3.74,3.74,0,0,1,1,1.38,5.41,5.41,0,0,1,.4,2.25v7.08H41V20.6A2.62,2.62,0,0,0,40.58,19a1.45,1.45,0,0,0-1.24-.54,2,2,0,0,0-1.57.62,2.15,2.15,0,0,0-.57,1.55ZM46,16.12h2.9v.82a4.85,4.85,0,0,1,1.37-.72A5.64,5.64,0,0,1,51.89,16a4.49,4.49,0,0,1,1.88.38,3.84,3.84,0,0,1,1.46,1.09,5.12,5.12,0,0,1,.94,1.77,7.94,7.94,0,0,1,.33,2.37A7.21,7.21,0,0,1,56.12,24,5.72,5.72,0,0,1,55,25.84a5,5,0,0,1-1.8,1.25,6.16,6.16,0,0,1-2.44.46c-.29,0-.57,0-.86,0s-.58,0-.87-.06v3.6H46Zm3.08,8.94a7.34,7.34,0,0,0,.81.05h.93a2.21,2.21,0,0,0,2-1,4.69,4.69,0,0,0,.65-2.66,3.55,3.55,0,0,0-.56-2.21,2.11,2.11,0,0,0-1.77-.72,3.28,3.28,0,0,0-1.08.15,2.54,2.54,0,0,0-.93.5Zm9.74-6.43H57.21V16.12H61.9V27.53H58.8Zm2.94-7.73a8.35,8.35,0,0,1-.09,1.41,4.27,4.27,0,0,1-.33,1.16,4.68,4.68,0,0,1-.62,1.06,13.89,13.89,0,0,1-1,1.13l-1.05-1a6.19,6.19,0,0,0,.81-1,3.68,3.68,0,0,0,.4-1H58.05V8.94h3.69Zm2.54.2h3.1v9.38h1.21l2.9-4.36h3.3l-3.58,5.2L75,27.53H71.58L68.66,23H67.38v4.58H64.27Z"/></g></g></svg>