<svg id="Warstwa_1" data-name="Warstwa 1" xmlns="http://www.w3.org/2000/svg" viewBox="0 0 90 40"><defs><style>.cls-1{fill:#1f1a17;}.cls-2{fill:#f0522f;}</style></defs><title>Obszar roboczy 11</title><path id="empik" class="cls-1" d="M35.61,14.49h1.92v5.82h.75l1.8-2.7h2.06l-2.23,3.22,2.36,3.85H40.14l-1.81-2.85h-.8v2.85H35.61V14.49Zm-2.82,2.83-.66-.65a2.56,2.56,0,0,0,.75-1.23H31.74V13.15H34v1.22a3.58,3.58,0,0,1-1.24,3Zm-.59,1.84h-1V17.61h2.92v7.07H32.2V19.16Zm-6.05,4c.34,0,.64,0,1.08,0,1.06,0,1.62-.85,1.62-2.25,0-1.23-.46-1.81-1.45-1.81a1.92,1.92,0,0,0-1.25.39v3.64Zm-1.91-5.54H26v.5a3,3,0,0,1,1.87-.58c1.72,0,2.86,1.29,2.86,3.49a3.4,3.4,0,0,1-3.54,3.67,9.87,9.87,0,0,1-1.08-.05v2.23H24.24V17.61Zm-5.45,7.07H16.86v-4.3c0-.88-.31-1.32-1-1.32a1.86,1.86,0,0,0-1.31.51v5.11H12.61V17.61h1.84v.52a3.29,3.29,0,0,1,1.87-.64A2,2,0,0,1,18,18.4a3.16,3.16,0,0,1,2.32-.91A2.47,2.47,0,0,1,23,20.29v4.39H21.12v-4.3c0-.86-.29-1.3-1-1.3a1.27,1.27,0,0,0-1.33,1.34v4.26Zm-9-4.32A1.34,1.34,0,0,0,8.47,19,1.49,1.49,0,0,0,7,20.36Zm1.72,1.25H6.93c.15,1.31.92,1.64,1.61,1.64A1.32,1.32,0,0,0,10,22.41l1.53.63a2.91,2.91,0,0,1-3,1.75C6.29,24.79,5,23.38,5,21.06a3.27,3.27,0,0,1,3.41-3.57,3.08,3.08,0,0,1,3.14,3.33Z"/><g id="foto"><g id="ramka"><polygon class="cls-2" points="70.19 25.93 68.12 25.93 68.12 27.02 71.28 27.02 71.28 24.14 70.19 24.14 70.19 25.93"/><polygon class="cls-2" points="43.6 24.14 43.6 27.02 46.77 27.02 46.77 25.93 44.7 25.93 44.7 24.14 43.6 24.14"/><polygon class="cls-2" points="70.19 16.14 71.29 16.14 71.29 12.98 68.12 12.98 68.12 14.07 70.19 14.07 70.19 16.14"/><polygon class="cls-2" points="46.77 14.07 46.77 12.98 43.6 12.98 43.6 16.14 44.7 16.14 44.7 14.07 46.77 14.07"/></g><g id="foto-2" data-name="foto"><path class="cls-2" d="M49.11,16.41a1.28,1.28,0,0,1,1.06-.4h.34l.29.06.2-1.42a2.85,2.85,0,0,0-.46-.1l-.55,0a3.36,3.36,0,0,0-1.42.27,2.86,2.86,0,0,0-1,.71,2.82,2.82,0,0,0-.54,1,4.17,4.17,0,0,0-.17,1.16v6.92h1.9V19.15h1.78V17.6H48.78v-.15A1.56,1.56,0,0,1,49.11,16.41Z"/><path class="cls-2" d="M57.56,21.11a5.27,5.27,0,0,1-.2,1.49,3.2,3.2,0,0,1-.64,1.13,2.84,2.84,0,0,1-1.06.73,3.9,3.9,0,0,1-1.47.26,3.8,3.8,0,0,1-1.48-.26,2.76,2.76,0,0,1-1.06-.73A3,3,0,0,1,51,22.6a5.39,5.39,0,0,1,0-3,3,3,0,0,1,.63-1.14,2.87,2.87,0,0,1,1.06-.73,4,4,0,0,1,1.48-.26,3.9,3.9,0,0,1,1.47.26,3,3,0,0,1,1.06.73,3.16,3.16,0,0,1,.64,1.14A5.32,5.32,0,0,1,57.56,21.11Zm-1.89,0a2.58,2.58,0,0,0-.37-1.59,1.37,1.37,0,0,0-1.11-.46,1.34,1.34,0,0,0-1.11.46,2.58,2.58,0,0,0-.37,1.59,2.71,2.71,0,0,0,.37,1.61,1.5,1.5,0,0,0,2.22,0A2.69,2.69,0,0,0,55.67,21.11Z"/><path class="cls-2" d="M58.27,15.88l1.89-.24v2h2v1.55h-2v3.18a.74.74,0,0,0,.22.56.79.79,0,0,0,.57.21,1.25,1.25,0,0,0,.76-.3l.8,1.14a2.63,2.63,0,0,1-.91.59,3.06,3.06,0,0,1-1.1.18,2.21,2.21,0,0,1-1.61-.6,2.38,2.38,0,0,1-.62-1.78V15.88Z"/><path class="cls-2" d="M69.27,21.11a5.25,5.25,0,0,1-.21,1.49,3.2,3.2,0,0,1-.64,1.13,2.84,2.84,0,0,1-1.06.73,3.9,3.9,0,0,1-1.47.26,3.8,3.8,0,0,1-1.48-.26,2.76,2.76,0,0,1-1.06-.73,3,3,0,0,1-.62-1.13,5.16,5.16,0,0,1,0-3,3,3,0,0,1,.62-1.14,2.87,2.87,0,0,1,1.06-.73,4,4,0,0,1,1.48-.26,3.9,3.9,0,0,1,1.47.26,3,3,0,0,1,1.06.73,3.16,3.16,0,0,1,.64,1.14A5.31,5.31,0,0,1,69.27,21.11Zm-1.9,0A2.58,2.58,0,0,0,67,19.52a1.37,1.37,0,0,0-1.11-.46,1.34,1.34,0,0,0-1.11.46,2.58,2.58,0,0,0-.37,1.59,2.71,2.71,0,0,0,.37,1.61,1.5,1.5,0,0,0,2.22,0A2.69,2.69,0,0,0,67.37,21.11Z"/></g></g><g id="_.pl" data-name=".pl"><polygon class="cls-1" points="83.11 14.55 85 14.55 85 24.63 83.11 24.63 83.11 14.55"/><path class="cls-1" d="M77.49,19.51v3.61c.34,0,.63,0,1.07,0,1,0,1.59-.86,1.59-2.24,0-1.22-.45-1.78-1.42-1.78A1.93,1.93,0,0,0,77.49,19.51ZM75.6,17.63h1.78v.51a2.83,2.83,0,0,1,1.84-.58c1.7,0,2.83,1.27,2.83,3.43a3.38,3.38,0,0,1-3.49,3.66,9.59,9.59,0,0,1-1.07-.06V26.8H75.6V17.63Z"/><polygon class="cls-1" points="72.5 22.72 74.38 22.72 74.38 24.62 72.5 24.62 72.5 22.72"/></g></svg>