<?xml version="1.0" encoding="utf-8"?>
<!-- Generator: Adobe Illustrator 22.1.0, SVG Export Plug-In . SVG Version: 6.00 Build 0)  -->
<svg version="1.1" id="Warstwa_1" xmlns="http://www.w3.org/2000/svg" xmlns:xlink="http://www.w3.org/1999/xlink" x="0px" y="0px"
	 viewBox="0 0 283.5 283.5" style="enable-background:new 0 0 283.5 283.5;" xml:space="preserve">
<style type="text/css">
	.st0{fill:#FFFFFF;}
</style>
<g id="nl7qO5.tif_1_">
	<g>
		<path class="st0" d="M166.2,114.1c17.1,0,33.8,0,51.5,0c-0.9,7.6-1.7,14.1-2.6,20.6c-1.2,9.2-2.6,18.4-3.8,27.6
			c-0.5,3.9-1.9,5.7-6.3,5.6c-12.6-0.3-25.3-0.1-39.2-0.1c0,37.7,0,75.1,0,112.9c-2.9,0.2-4.5,0.4-6.1,0.4c-14,0-28-0.2-42,0.1
			c-4.9,0.1-5.8-1.7-5.8-6c0.1-12.2,0-24.3-0.1-36.5c-0.3-22-0.7-44-0.9-66c0-3.7-1.2-4.9-4.9-4.8c-12.2,0.2-24.3,0-36.5-0.1
			c-1.8,0-3.6-0.2-5.7-0.4c0-4.4-0.1-8.4,0-12.4c0.3-12.3,0.8-24.6,0.9-37c0-3.5,1.1-4.6,4.6-4.5c12.3,0.2,24.7-0.1,37,0.2
			c4,0.1,5.2-1.3,5.2-5.1c0-14.7-0.7-29.4,0.5-44c1.9-25,12.1-45.4,36.6-55.5c8.2-3.4,17.2-5.6,26-6.3c13-1,26.2-0.2,39.3-0.3
			c4,0,5.6,1.4,5.4,5.6c-0.6,13.3-0.9,26.6-1.1,40c-0.1,4-1.6,5-5.4,5c-10.3,0-20.7-0.3-30.9,1.1c-10.6,1.4-15.6,8.4-15.7,19.1
			c-0.1,11.2-0.3,22.3-0.4,33.5C165.9,108.9,166.1,111,166.2,114.1z"/>
	</g>
</g>
</svg>
