<?xml version="1.0" encoding="utf-8"?>
<!-- Generator: Adobe Illustrator 22.1.0, SVG Export Plug-In . SVG Version: 6.00 Build 0)  -->
<svg version="1.1" id="Warstwa_1" xmlns="http://www.w3.org/2000/svg" xmlns:xlink="http://www.w3.org/1999/xlink" x="0px" y="0px"
	 viewBox="0 0 283.5 283.5" style="enable-background:new 0 0 283.5 283.5;" xml:space="preserve">
<style type="text/css">
	.st0{fill:#FFFFFF;}
</style>
<g id="be07zK.tif_1_">
	<g>
		<path class="st0" d="M1.1,204.9c0-42.1,0-84.2,0-126.3c0.1-0.4,0.1-0.8,0.2-1.1c0.5-3.6,0.7-7.3,1.4-10.8
			C6.6,48,15.9,32.4,30.5,20.2C45.2,7.9,62.2,1.4,81.3,1.3C120.9,1,160.4,1.2,200,1.2c5.3,0,10.5,0.4,15.7,1.4
			c10.6,2,20.4,5.8,29.3,11.8c23.7,16.2,36.7,38.6,37.1,67.4c0.5,39.8,0.1,79.6,0.1,119.4c0,7.5-1,14.9-3.2,22.1
			c-7.5,24.7-23.2,42.2-46.7,52.7c-7,3.1-14.3,5-21.9,5.8c-1.9,0.2-3.7,0.4-5.6,0.6c-42.1,0-84.2,0-126.3,0
			c-0.3-0.1-0.7-0.2-1.1-0.2c-5-0.3-9.9-1-14.7-2.3c-18.9-4.9-34.2-15.2-45.8-30.9c-8.5-11.5-13.6-24.3-15.3-38.5
			C1.5,208.6,1.3,206.8,1.1,204.9z M141.7,22.8C141.7,22.8,141.7,22.8,141.7,22.8c-19.4,0-38.8,0-58.2,0c-6.6,0-13.1,0.9-19.5,2.9
			c-24.4,7.9-41.2,30.7-41.3,56.4c-0.1,39.8,0,79.6,0,119.5c0,5.9,1,11.6,2.7,17.2c7.9,25.1,30.9,41.9,57.2,41.9
			c38.7,0,77.5,0,116.2,0c2.1,0,4.2,0,6.3-0.2c10.2-0.7,19.7-3.8,28.2-9.5c17.9-12.1,27.1-29.1,27.2-50.6c0.2-39.1,0-78.2,0.1-117.3
			c0-5-0.6-9.9-1.7-14.8c-6.3-26.3-30.5-45.4-57.5-45.5C181.5,22.8,161.6,22.8,141.7,22.8z"/>
		<path class="st0" d="M217.4,141.8c0,41.7-34.1,75.7-75.9,75.7c-41.5,0-75.5-34.1-75.5-75.7c0-41.8,34.4-76.3,76.9-75.6
			C183.8,66.7,217.3,100.3,217.4,141.8z M141.6,195.8c29.9,0,54.1-24,54.1-53.9c0.1-30-23.8-53.9-53.3-54.2
			c-30.3-0.4-54.8,23.9-54.8,54C87.6,171.6,111.6,195.8,141.6,195.8z"/>
		<path class="st0" d="M239,55.2c0,5.9-4.8,10.8-10.8,10.8c-6,0-10.9-4.9-10.9-10.8c0-5.9,4.9-10.8,10.8-10.8
			C234.1,44.4,239,49.3,239,55.2z"/>
	</g>
</g>
</svg>
