<?xml version="1.0" encoding="utf-8"?>
<!-- Generator: Adobe Illustrator 22.1.0, SVG Export Plug-In . SVG Version: 6.00 Build 0)  -->
<svg version="1.1" id="Warstwa_1" xmlns="http://www.w3.org/2000/svg" xmlns:xlink="http://www.w3.org/1999/xlink" x="0px" y="0px"
	 viewBox="0 0 283.5 283.5" style="enable-background:new 0 0 283.5 283.5;" xml:space="preserve">
<style type="text/css">
	.st0{fill:#FFFFFF;}
</style>
<g id="G1MdfY.tif">
	<g>
		<path class="st0" d="M97.8,277.9C97.9,230,98,182,98.1,134.1c0-12.2-0.2-24.5-0.3-36.7c0-1,0-2,0-3.2c20.3,0,40.5,0,60.9,0
			c0,8.3,0,16.5,0,25.5c1-1.2,1.5-1.8,1.9-2.4c12.9-18.9,30.9-27.8,53.6-27.6c13.3,0.1,25.9,2.9,37.3,10
			c11.6,7.2,19.5,17.4,24.8,29.8c5.9,14.1,7.7,28.9,7.7,44c0,34.8,0,69.5,0,104.3c-20.2,0-40.4,0-60.6,0c-0.2-1.2-0.4-2.3-0.4-3.5
			c0-30.9,0.1-61.9-0.1-92.8c0-6.4-0.6-12.8-1.8-19c-1.9-9.6-6.4-18-16-22c-15.5-6.5-34-1.1-42.9,16.5c-3.2,6.3-3.4,13-3.4,19.8
			c0,32.5,0,65,0,97.6c0,1.2-0.3,2.3-0.4,3.5C138.2,277.9,118,277.9,97.8,277.9z"/>
		<path class="st0" d="M3.2,277.9c-0.1-1.2-0.2-2.4-0.2-3.6c0-58.9,0-117.7,0-176.6c0-1.1,0-2.2,0-3.5c20.4,0,40.6,0,61,0
			c0,1.1,0,2,0,2.9c0,59.2,0,118.5,0,177.7c0,1-0.1,2-0.1,3.1C43.7,277.9,23.4,277.9,3.2,277.9z"/>
		<path class="st0" d="M-0.7,33.1C0.6,28,1.9,23,5.3,18.7C12.8,8.9,23.2,5.4,35.1,5.6c10.5,0.2,19.7,3.6,26.3,12.2
			C74.1,34,69.1,62.8,42,68.1c-11.3,2.2-22.2,0.8-31.5-6.7C4.6,56.6,1.2,50.4-0.1,43c-0.1-0.5-0.3-1-0.5-1.5
			C-0.7,38.7-0.7,35.9-0.7,33.1z"/>
	</g>
</g>
</svg>
