<?xml version="1.0" encoding="utf-8"?>
<!-- Generator: Adobe Illustrator 22.1.0, SVG Export Plug-In . SVG Version: 6.00 Build 0)  -->
<svg version="1.1" id="Warstwa_1" xmlns="http://www.w3.org/2000/svg" xmlns:xlink="http://www.w3.org/1999/xlink" x="0px" y="0px"
	 viewBox="0 0 283.5 283.5" style="enable-background:new 0 0 283.5 283.5;" xml:space="preserve">
<style type="text/css">
	.st0{fill:#FFFFFF;}
</style>
<g id="ttGCNo.tif_1_">
	<g>
		<path class="st0" d="M192.4,26.4c4.6-0.1,9.1-0.1,13.6,0.7c12.1,2.1,22.5,7.5,31.2,16.1c1.1,1.1,2,1.4,3.6,1
			c11.9-2.7,23.1-6.9,33.6-13c0.3-0.2,0.6-0.3,0.9-0.4c0.1,0.1,0.1,0.1,0.2,0.2c-2,6.6-5.3,12.5-9.6,17.9c-4,5.1-8.8,9.4-14.3,13
			c-0.2,0.2-0.5,0.3-0.7,0.5c0,0,0,0.1,0,0.2c2.6-0.2,5.1-0.7,7.7-1.2c8.2-1.6,16.1-4,23.8-7.3c0.3-0.1,0.7-0.4,1.1-0.2
			c-5.3,7.8-11.3,14.8-18.2,21.2c-3,2.7-6,5.4-9.3,7.7c-1.5,1-1.6,2.2-1.4,3.7c0.3,3.2,0.3,6.4,0,9.7c0,0.2-0.1,0.4-0.1,0.6
			c-1.4,37-13.9,70-36.5,99.1c-14.7,19-32.8,33.8-54.4,44.4c-14.4,7.2-29.6,11.9-45.6,14.4c-4.8,0.8-9.7,1.3-14.5,1.8
			c-7,0.6-14.1,0.7-21.1,0.4c-22.5-0.9-44-6.1-64.3-15.8c-5.8-2.8-11.4-5.8-16.9-9.3c-0.4-0.2-0.7-0.5-1.1-0.8c0,0,0,0,0,0
			c3.1,0,6.3,0.4,9.4,0.6c3.8,0.2,7.5,0.1,11.3-0.1c6.4-0.4,12.7-1.3,19-2.8c7.6-1.8,15-4.2,22.1-7.4c8.1-3.7,15.7-8.2,22.8-13.6
			c0.3-0.2,0.5-0.4,0.8-0.7c-26.6-2.2-44.5-15.7-53.9-40.5c8.7,1.4,17.2,1.1,26-1.2c-13.7-3.1-24.9-9.9-33.5-20.6
			c-8.7-10.8-12.9-23.2-12.9-37.3c8.2,4.4,16.7,6.9,25.8,7.1c-1.1-0.9-2.2-1.7-3.3-2.6c-4.3-3.4-8.1-7.4-11.3-11.9
			c-4.5-6.3-7.6-13.3-9.3-20.9c-1.2-5.4-1.7-10.8-1.4-16.2c0.6-8.8,2.9-17.2,7.3-25c0.5-0.9,0.8-0.9,1.3-0.1
			c2.7,3.4,5.6,6.5,8.6,9.6c6.8,7.1,14.1,13.4,22,19.2c5.7,4.1,11.6,7.9,17.8,11.2c8,4.3,16.3,8,24.8,11c8.5,3,17.3,5.2,26.2,6.8
			c4,0.7,8,1.2,12.1,1.6c2.2,0.2,4.3,0.4,6.5,0.5c0.8,0,1.2,0.1,0.9-1c-3.1-16.1-0.5-31.2,8.8-44.8c9.6-14.1,23-22.4,39.9-25
			C189.4,26.7,190.9,26.6,192.4,26.4z"/>
		<path class="st0" d="M0.1,231C0.1,231,0,231,0.1,231C0,231,0,230.9,0,230.9C0,230.9,0.1,231,0.1,231C0.1,231,0.1,231,0.1,231z"/>
		<path class="st0" d="M275.3,30.9c0.1,0,0.2-0.1,0.2-0.1c0,0.1,0,0.2,0,0.3C275.4,31,275.4,31,275.3,30.9z"/>
	</g>
</g>
</svg>
